<svg
        xmlns="http://www.w3.org/2000/svg"
        viewBox="0 0 400 400"
      >
        <title>Metacritic Rating</title>
        <path
          fill="#fa0"
          d="M171.7 1.5C92.8 12.3 26.1 71.9 6 149.6c-7.7 29.8-8.1 67.2-1.1 96.8 6.8 28.3 20.5 56.1 39.4 79.6 32.5 40.5 80.6 66.9 133.1 73.1 12.6 1.5 45.2.6 56.4-1.5 29.2-5.4 54.1-15.5 77.8-31.5 45.6-30.6 75.6-76.8 86-132.3 2.1-11.2 3-43.8 1.5-56.4-4.2-36-17.5-69.1-39.3-98.2C328.1 37 279.1 8.3 227.3 1.5c-13.9-1.8-42-1.8-55.6 0M234.5 28c23.2 4.9 44 13.7 64.1 27.1 15.1 10 36.3 31.2 46.3 46.3 9.4 14.2 16.3 28.1 21.1 42.5 6.4 19.3 8.2 29.8 8.9 53.4.3 11.4.3 20.7-.1 20.7-.5 0-.8 1.4-.8 3.1 0 5.5-4 23.1-8 35-8.6 26-21.7 46.7-42.4 67.5-20.8 20.7-41.5 33.8-67.5 42.4-21.8 7.3-29.5 8.4-56.1 8.4s-34.3-1.1-56.1-8.4c-26-8.6-46.7-21.7-67.5-42.4-20.7-20.8-33.8-41.5-42.4-67.5-7.3-21.8-8.4-29.5-8.4-56.1 0-20.7.2-24.8 2.2-34 5.2-23.8 13.9-44.4 27.3-64.6 10-15.1 31.2-36.3 46.3-46.3 23-15.3 45.8-24.3 72.5-28.6 13.2-2.2 47.6-1.3 60.6 1.5"
        />
        <path
          fill="#d4aa00"
          d="M374 217c0 .5.5 1 1.1 1 .5 0 .7-.5.4-1-.3-.6-.8-1-1.1-1-.2 0-.4.4-.4 1"
        />
        <path d="M184.5 25.6c-14 1.9-19.3 2.9-28 5.1-19.7 4.9-41.2 14.8-58.5 27.1-12.2 8.6-31.6 28-40.2 40.2-15.7 22.1-25.9 47.2-30.9 76-1.8 9.9-1.8 42.1 0 52 5 28.8 15.2 53.9 30.9 76 8.6 12.2 28 31.6 40.2 40.2 22.1 15.7 47.2 25.9 76 30.9 9.9 1.8 42.1 1.8 52 0 28.8-5 53.9-15.2 76-30.9 12.2-8.6 31.6-28 40.2-40.2 12.3-17.3 22.2-38.8 27.1-58.5 4.4-17.4 5.2-24.2 5.2-43.5 0-31-5.8-54.5-20.1-81.9-8.1-15.5-17.4-28.1-30.9-41.6-26.4-26.4-56.8-42.1-95-49.1-7.7-1.5-37.8-2.7-44-1.8m54.5 42c8.5 2 20.9 8.1 29 14.3 3.6 2.7 24.3 22.8 46 44.5l39.5 39.6-18.5 18.5-18.4 18.5-37.6-37.3c-39.2-38.9-43.9-42.8-53.6-44.6-9.7-1.9-18.7 2.5-23.6 11.4-2.3 4.1-2.8 6.3-2.8 12 0 12.8.3 13.2 43.3 56.3l38.2 38.2-18.5 18.5-18.5 18.5-36.5-36.4c-20.1-19.9-38.5-37.7-41-39.3-6.9-4.7-11.9-6.5-18.2-6.5-7.5-.1-13.9 3.6-18.3 10.7-2.7 4.4-3 5.6-2.9 12.9.1 13.8-.5 13.1 42.7 56.4l38.2 38.2-18.5 18.5-18.4 18.5-48.6-48.3c-26.7-26.6-54.3-53.6-61.3-60.2l-12.8-11.9 15.8-15.8c8.7-8.7 16-15.8 16.3-15.8s4.4 3.1 9.1 6.9l8.5 6.8v-11.6c.1-12.8 1.8-19.8 7.6-30 4.2-7.2 14-17.6 21.2-22.3 11.2-7.3 26.6-9.8 38.2-6.3 2.7.8 4.9 1.5 4.9 1.5s0-5.7.1-12.8c0-11.1.4-13.7 2.8-20.7 3.5-10.4 9.1-18.9 17.7-27 14.2-13.4 31-18.2 48.9-13.9" />
        <path
          fill="#005"
          d="M198.2 144.5c0 1.6.2 2.2.5 1.2.2-.9.2-2.3 0-3-.3-.6-.5.1-.5 1.8"
        />
        <path
          fill="#558080"
          d="M169.3 129.5c0 3.3.2 4.5.4 2.7s.2-4.5 0-6-.4 0-.4 3.3m-72.1 69c0 1.6.2 2.2.5 1.2.2-.9.2-2.3 0-3-.3-.6-.5.1-.5 1.8"
        />
        <path
          fill="#aaa"
          d="M224.8 66.7c1.2.2 3 .2 4 0 .9-.3-.1-.5-2.3-.4-2.2 0-3 .2-1.7.4m-99.7 152.9c0 1.1.3 1.4.6.6.3-.7.2-1.6-.1-1.9-.3-.4-.6.2-.5 1.3"
        />
        <path
          fill="#055"
          d="M74 253.5c1.9 1.9 3.6 3.5 3.9 3.5s-1-1.6-2.9-3.5-3.6-3.5-3.9-3.5 1 1.6 2.9 3.5"
        />
        <path
          fill="#fff"
          d="M210.9 69.4c-9 3.1-16.6 8.4-24.4 16.8-12 13-17.1 27.5-16.3 46.6.4 9.1.3 10.2-1.1 9.7-.9-.4-4.7-1.3-8.5-2.1-15.3-3.3-30.5 2.3-44.2 16-13.4 13.6-19.1 27.9-18.1 45.8.3 5.4.3 9.8 0 9.8-.2 0-4.3-3.2-9-7-4.7-3.9-8.8-7-9.2-7-.3 0-7.5 6.9-15.9 15.3l-15.3 15.3 11.8 10.9c6.5 6 33.9 32.9 60.8 59.7l49.1 48.8 17.9-18 18-18-37.7-37.7c-40.6-40.7-41.9-42.4-43.4-53.9-1.3-11.1 5.6-23.3 15.1-26.4 4.4-1.5 16.8-.8 18.5 1 .3.3 2.8 1.9 5.5 3.5 3.2 1.8 18.4 16.2 42 39.6l37.1 36.9 17.9-18 18-18-38.1-38.2c-43.2-43.4-42.9-43-42.9-56.4 0-7.2.3-8.6 3-12.9 4.6-7.4 10.1-10.8 18.1-11.3 6-.4 7.2-.1 14.2 3.3 7.2 3.6 10 6.1 45.2 41.1l37.6 37.4 17.9-18 18-18-39-39.1c-21.5-21.4-41.9-41.3-45.5-44-7.3-5.6-22.1-13.1-29.2-14.8-8.1-1.9-20.5-1.4-27.9 1.3"
        />
        <path
          fill="#d4d4d4"
          d="m187.9 83.7-3.4 3.8 3.8-3.4c3.4-3.3 4.2-4.1 3.4-4.1-.2 0-1.9 1.7-3.8 3.7m87.1 4.7c0 .2.8 1 1.8 1.7 1.5 1.3 1.6 1.2.3-.4s-2.1-2.1-2.1-1.3m-70.1 38.3c-1.3 1.6-1.2 1.7.4.4.9-.7 1.7-1.5 1.7-1.7 0-.8-.8-.3-2.1 1.3m-89 29-3.4 3.8 3.8-3.4c2-1.9 3.7-3.6 3.7-3.8 0-.8-.8 0-4.1 3.4m218.6 28.5-18 18.3 18.3-18c16.9-16.7 18.7-18.5 17.9-18.5-.1 0-8.3 8.2-18.2 18.2m-202.6 15.5c-1.3 1.6-1.2 1.7.4.4.9-.7 1.7-1.5 1.7-1.7 0-.8-.8-.3-2.1 1.3M49 229.4c0 .2.8 1 1.8 1.7 1.5 1.3 1.6 1.2.3-.4s-2.1-2.1-2.1-1.3m212.5 27.8-18 18.3 18.3-18c10-9.9 18.2-18.1 18.2-18.2 0-.8-1.8 1-18.5 17.9M63.5 243c1 1.1 2 2 2.3 2s-.3-.9-1.3-2-2-2-2.3-2 .3.9 1.3 2m125 87.2-18 18.3 18.3-18c16.9-16.7 18.7-18.5 17.9-18.5-.1 0-8.3 8.2-18.2 18.2"
        />
        <path
          fill="#80aaaa"
          d="M281 167.5c19 19 34.7 34.5 35 34.5s-15-15.5-34-34.5-34.7-34.5-35-34.5 15 15.5 34 34.5M243.5 203c19.8 19.8 36.2 36 36.5 36s-15.7-16.2-35.5-36-36.2-36-36.5-36 15.7 16.2 35.5 36M64 212.7l-15.5 15.8L64.3 213c8.6-8.5 15.7-15.6 15.7-15.7 0-.8-1.6.8-16 15.4M170.5 276c19.8 19.8 36.2 36 36.5 36s-15.7-16.2-35.5-36-36.2-36-36.5-36 15.7 16.2 35.5 36m-102-28c1 1.1 2 2 2.3 2s-.3-.9-1.3-2-2-2-2.3-2 .3.9 1.3 2"
        />
        <path
          fill="#d4ffff"
          d="M303 116.5c14 14 25.7 25.5 26 25.5s-11-11.5-25-25.5S278.3 91 278 91s11 11.5 25 25.5m38 38c6.3 6.3 11.7 11.5 12 11.5.2 0-4.7-5.2-11-11.5S330.3 143 330 143c-.2 0 4.7 5.2 11 11.5M207.5 240c19.2 19.2 35.2 35 35.5 35s-15.3-15.8-34.5-35c-19.2-19.3-35.2-35-35.5-35s15.3 15.7 34.5 35M59 238.4c0 .2.8 1 1.8 1.7 1.5 1.3 1.6 1.2.3-.4s-2.1-2.1-2.1-1.3m64.5 63.6c25.3 25.3 46.2 46 46.5 46s-20.2-20.7-45.5-46-46.2-46-46.5-46 20.2 20.7 45.5 46"
        />
      </svg>